<svg width="190" height="73" viewBox="0 0 190 73" fill="none" xmlns="http://www.w3.org/2000/svg">
<g filter="url(#filter0_dd_29_87)">
<path d="M16 16C16 11.5817 19.5817 8 24 8H166C170.418 8 174 11.5817 174 16V41C174 45.4183 170.418 49 166 49H24C19.5817 49 16 45.4183 16 41V16Z" fill="#4B4DED"/>
</g>
<path d="M81.006 27.578L80.993 28.436C80.499 27.812 79.654 27.435 78.653 27.435C76.768 27.435 75.468 28.813 75.468 30.789C75.468 32.765 76.768 34.143 78.653 34.143C79.641 34.143 80.499 33.766 80.993 33.142L81.006 34H82.306V27.578H81.006ZM78.887 32.817C77.73 32.817 76.924 31.985 76.924 30.789C76.924 29.593 77.73 28.761 78.887 28.761C80.044 28.761 80.85 29.593 80.85 30.789C80.85 31.985 80.044 32.817 78.887 32.817ZM89.0385 24.9V28.267C88.5315 27.747 87.7385 27.435 86.8155 27.435C84.9955 27.435 83.6565 28.761 83.6565 30.789C83.6565 32.817 84.9955 34.143 86.8155 34.143C87.8295 34.143 88.6875 33.766 89.1815 33.142L89.1945 34H90.4945V24.9H89.0385ZM87.0755 32.817C85.9185 32.817 85.1125 31.985 85.1125 30.789C85.1125 29.593 85.9185 28.761 87.0755 28.761C88.2325 28.761 89.0385 29.593 89.0385 30.789C89.0385 31.985 88.2325 32.817 87.0755 32.817ZM97.227 24.9V28.267C96.72 27.747 95.927 27.435 95.004 27.435C93.184 27.435 91.845 28.761 91.845 30.789C91.845 32.817 93.184 34.143 95.004 34.143C96.018 34.143 96.876 33.766 97.37 33.142L97.383 34H98.683V24.9H97.227ZM95.264 32.817C94.107 32.817 93.301 31.985 93.301 30.789C93.301 29.593 94.107 28.761 95.264 28.761C96.421 28.761 97.227 29.593 97.227 30.789C97.227 31.985 96.421 32.817 95.264 32.817ZM107.197 27.448C106.287 27.448 105.52 27.773 104.974 28.423L104.961 27.578H103.661V34H105.117V30.62C105.117 29.541 105.858 28.761 106.924 28.761C107.899 28.761 108.484 29.411 108.484 30.542V34H109.94V30.451C109.94 28.618 108.848 27.448 107.197 27.448ZM114.521 27.448C112.532 27.448 111.193 28.8 111.193 30.789C111.193 32.843 112.558 34.182 114.677 34.182C115.782 34.182 116.809 33.753 117.446 33.064L116.562 32.206C116.172 32.609 115.444 32.869 114.716 32.869C113.585 32.869 112.805 32.271 112.688 31.335H117.823C118.031 28.93 116.783 27.448 114.521 27.448ZM114.56 28.709C115.626 28.709 116.328 29.294 116.432 30.204H112.701C112.883 29.255 113.546 28.709 114.56 28.709ZM127.149 27.578L126.447 29.944L125.732 32.362L124.094 27.578H122.859L121.208 32.336L120.519 29.944L119.791 27.578H118.244L120.389 34H121.949L122.56 32.167L123.483 29.593L124.406 32.167L125.017 34H126.564L128.696 27.578H127.149ZM136.505 32.609C136.258 32.726 135.959 32.804 135.699 32.804C135.101 32.804 134.802 32.44 134.802 31.79V28.813H136.648V27.578H134.802V25.745L133.359 25.901V27.578H132.15V28.813H133.359V31.79C133.359 33.324 134.139 34.091 135.465 34.091C135.998 34.091 136.414 34 136.908 33.779L136.505 32.609ZM143.111 27.578L143.098 28.436C142.604 27.812 141.759 27.435 140.758 27.435C138.873 27.435 137.573 28.813 137.573 30.789C137.573 32.765 138.873 34.143 140.758 34.143C141.746 34.143 142.604 33.766 143.098 33.142L143.111 34H144.411V27.578H143.111ZM140.992 32.817C139.835 32.817 139.029 31.985 139.029 30.789C139.029 29.593 139.835 28.761 140.992 28.761C142.149 28.761 142.955 29.593 142.955 30.789C142.955 31.985 142.149 32.817 140.992 32.817ZM148.609 34.156C150.273 34.156 151.378 33.35 151.378 32.154C151.378 30.945 150.546 30.334 148.648 30.126C147.712 30.022 147.335 29.801 147.335 29.385C147.335 28.917 147.829 28.657 148.752 28.657C149.415 28.657 150.026 28.839 150.598 29.203L151.235 28.163C150.52 27.669 149.662 27.422 148.687 27.422C147.023 27.422 145.905 28.215 145.905 29.385C145.905 30.503 146.854 31.205 148.531 31.361C149.519 31.465 149.935 31.686 149.935 32.141C149.935 32.609 149.467 32.869 148.648 32.869C147.803 32.869 146.958 32.609 146.386 32.154L145.71 33.207C146.568 33.844 147.53 34.156 148.609 34.156ZM158.606 34L155.525 30.659L158.216 27.578H156.435L154.134 30.282V24.9H152.678V34H154.134V31.166L156.708 34H158.606Z" fill="white"/>
<path d="M43 22V36" stroke="white" stroke-width="2" stroke-linecap="round" stroke-linejoin="round"/>
<path d="M36 29H50" stroke="white" stroke-width="2" stroke-linecap="round" stroke-linejoin="round"/>
<defs>
<filter id="filter0_dd_29_87" x="0" y="0" width="190" height="73" filterUnits="userSpaceOnUse" color-interpolation-filters="sRGB">
<feFlood flood-opacity="0" result="BackgroundImageFix"/>
<feColorMatrix in="SourceAlpha" type="matrix" values="0 0 0 0 0 0 0 0 0 0 0 0 0 0 0 0 0 0 127 0" result="hardAlpha"/>
<feOffset dy="8"/>
<feGaussianBlur stdDeviation="8"/>
<feColorMatrix type="matrix" values="0 0 0 0 0.203922 0 0 0 0 0.235294 0 0 0 0 0.266667 0 0 0 0.1 0"/>
<feBlend mode="normal" in2="BackgroundImageFix" result="effect1_dropShadow_29_87"/>
<feColorMatrix in="SourceAlpha" type="matrix" values="0 0 0 0 0 0 0 0 0 0 0 0 0 0 0 0 0 0 127 0" result="hardAlpha"/>
<feOffset dy="2"/>
<feGaussianBlur stdDeviation="2"/>
<feColorMatrix type="matrix" values="0 0 0 0 0.458824 0 0 0 0 0.513726 0 0 0 0 0.556863 0 0 0 0.04 0"/>
<feBlend mode="normal" in2="effect1_dropShadow_29_87" result="effect2_dropShadow_29_87"/>
<feBlend mode="normal" in="SourceGraphic" in2="effect2_dropShadow_29_87" result="shape"/>
</filter>
</defs>
</svg>
