<svg width="72" height="72" viewBox="0 0 72 72" fill="none" xmlns="http://www.w3.org/2000/svg">
<g filter="url(#filter0_dd_29_23)">
<circle cx="36" cy="28" r="20" fill="url(#paint0_linear_29_23)"/>
<path fill-rule="evenodd" clip-rule="evenodd" d="M43 27H37V21C37 20.447 36.552 20 36 20C35.448 20 35 20.447 35 21V27H29C28.448 27 28 27.447 28 28C28 28.553 28.448 29 29 29H35V35C35 35.553 35.448 36 36 36C36.552 36 37 35.553 37 35V29H43C43.552 29 44 28.553 44 28C44 27.447 43.552 27 43 27" fill="#FBFBFB"/>
</g>
<defs>
<filter id="filter0_dd_29_23" x="0" y="0" width="72" height="72" filterUnits="userSpaceOnUse" color-interpolation-filters="sRGB">
<feFlood flood-opacity="0" result="BackgroundImageFix"/>
<feColorMatrix in="SourceAlpha" type="matrix" values="0 0 0 0 0 0 0 0 0 0 0 0 0 0 0 0 0 0 127 0" result="hardAlpha"/>
<feOffset dy="8"/>
<feGaussianBlur stdDeviation="8"/>
<feColorMatrix type="matrix" values="0 0 0 0 0.203922 0 0 0 0 0.235294 0 0 0 0 0.266667 0 0 0 0.1 0"/>
<feBlend mode="normal" in2="BackgroundImageFix" result="effect1_dropShadow_29_23"/>
<feColorMatrix in="SourceAlpha" type="matrix" values="0 0 0 0 0 0 0 0 0 0 0 0 0 0 0 0 0 0 127 0" result="hardAlpha"/>
<feOffset dy="2"/>
<feGaussianBlur stdDeviation="2"/>
<feColorMatrix type="matrix" values="0 0 0 0 0.458824 0 0 0 0 0.513726 0 0 0 0 0.556863 0 0 0 0.04 0"/>
<feBlend mode="normal" in2="effect1_dropShadow_29_23" result="effect2_dropShadow_29_23"/>
<feBlend mode="normal" in="SourceGraphic" in2="effect2_dropShadow_29_23" result="shape"/>
</filter>
<linearGradient id="paint0_linear_29_23" x1="16" y1="8" x2="56" y2="48" gradientUnits="userSpaceOnUse">
<stop stop-color="#4B4DED"/>
<stop offset="1" stop-color="#4B4DED"/>
</linearGradient>
</defs>
</svg>
