<svg width="15" height="15" viewBox="0 0 15 15" fill="none" xmlns="http://www.w3.org/2000/svg">
<path d="M6.625 2.5H2.25C1.91848 2.5 1.60054 2.6317 1.36612 2.86612C1.1317 3.10054 1 3.41848 1 3.75V12.5C1 12.8315 1.1317 13.1495 1.36612 13.3839C1.60054 13.6183 1.91848 13.75 2.25 13.75H11C11.3315 13.75 11.6495 13.6183 11.8839 13.3839C12.1183 13.1495 12.25 12.8315 12.25 12.5V8.125" stroke="#4B4DED" stroke-linecap="round" stroke-linejoin="round"/>
<path d="M11.3125 1.5625C11.5611 1.31386 11.8984 1.17418 12.25 1.17418C12.6016 1.17418 12.9389 1.31386 13.1875 1.5625C13.4361 1.81114 13.5758 2.14837 13.5758 2.5C13.5758 2.85163 13.4361 3.18886 13.1875 3.4375L7.25 9.375L4.75 10L5.375 7.5L11.3125 1.5625Z" stroke="#4B4DED" stroke-linecap="round" stroke-linejoin="round"/>
</svg>
