<svg width="41" height="25" viewBox="0 0 41 25" fill="none" xmlns="http://www.w3.org/2000/svg">
<path d="M38.1845 8.27544L32.7463 2.83723C32.7429 2.83387 32.7393 2.83077 32.7359 2.82741C32.7326 2.82405 32.7286 2.81953 32.7247 2.81565C31.1377 1.22885 29.0456 0.247189 26.8109 0.0407706C24.5762 -0.165648 22.3398 0.416179 20.4889 1.68543C18.6381 0.416179 16.4017 -0.165648 14.167 0.0407706C11.9322 0.247189 9.84013 1.22885 8.25314 2.81565L2.81493 8.25373C1.12059 9.94851 0.120311 12.215 0.0101672 14.6089C-0.0999762 17.0028 0.687956 19.3517 2.21952 21.1949C3.75109 23.038 5.91584 24.2428 8.28947 24.5729C10.6631 24.903 13.0745 24.3347 15.0508 22.9793C16.6511 24.0767 18.5459 24.6643 20.4862 24.6649C22.4266 24.6654 24.3217 24.0789 25.9226 22.9824C27.8966 24.3462 30.3093 24.9223 32.6866 24.598C35.0638 24.2734 37.2338 23.0719 38.7703 21.229C40.3068 19.3862 41.0985 17.0354 40.9902 14.6386C40.8818 12.2417 39.881 9.97205 38.1845 8.27544ZM12.0978 20.2561C10.8701 20.8425 9.47473 20.9758 8.15818 20.6328C6.84164 20.29 5.68871 19.4925 4.90319 18.3817C4.11767 17.2709 3.75011 15.9182 3.86548 14.5626C3.98084 13.207 4.57171 11.9358 5.53365 10.9737L10.9717 5.53553C11.8158 4.69257 12.9001 4.13156 14.0758 3.92956C15.2516 3.72757 16.461 3.89449 17.538 4.40738L13.6912 8.25373C12.216 9.72126 11.261 11.6308 10.9717 13.6914C10.908 14.142 10.8759 14.5964 10.8756 15.0514C10.8717 16.8503 11.3762 18.6137 12.3308 20.1385C12.2538 20.1796 12.1761 20.2186 12.0978 20.2557V20.2561ZM24.5675 19.1304C23.4846 20.2062 22.0194 20.8087 20.4929 20.8063C18.9665 20.8037 17.5033 20.1961 16.4239 19.1168C15.3446 18.0374 14.737 16.5743 14.7345 15.0478C14.732 13.5213 15.3345 12.0562 16.4103 10.9732L20.4889 6.89463L24.5675 10.9732C25.6473 12.0558 26.2537 13.5224 26.2537 15.0514C26.2537 16.5803 25.6473 18.047 24.5675 19.1295V19.1304ZM35.4654 19.152C34.6173 19.9979 33.5273 20.5592 32.3462 20.7583C31.165 20.9575 29.9512 20.7846 28.8727 20.2635C28.7951 20.2261 28.7184 20.187 28.6425 20.146C29.6 18.6195 30.1061 16.8533 30.1023 15.0514C30.1019 14.5964 30.0698 14.142 30.0061 13.6914C29.7169 11.6308 28.7618 9.72126 27.2866 8.25373L23.4634 4.43065L23.4418 4.40906C24.5183 3.8964 25.7271 3.72937 26.9023 3.93088C28.0774 4.13241 29.1614 4.69261 30.0056 5.53462C30.0095 5.5385 30.0131 5.54264 30.0168 5.54651C30.0206 5.55039 30.0238 5.55298 30.0272 5.55634L35.4399 10.9691L35.4658 10.9949C36.5474 12.0767 37.1551 13.5438 37.1551 15.0735C37.1551 16.6032 36.5474 18.0704 35.4658 19.1521L35.4654 19.152Z" fill="url(#paint0_linear_3_9)"/>
<defs>
<linearGradient id="paint0_linear_3_9" x1="11.234" y1="24.4147" x2="20.6087" y2="-1.65395" gradientUnits="userSpaceOnUse">
<stop stop-color="#8B8DF1"/>
<stop offset="1" stop-color="#6B25FF"/>
</linearGradient>
</defs>
</svg>
