<?xml version="1.0" encoding="UTF-8" standalone="no"?>
<svg
   xmlns="http://www.w3.org/2000/svg"
   xmlnsSodipodi="http://sodipodi.sourceforge.net/DTD/sodipodi-0.dtd"
   xmlnsNnkscape="http://www.inkscape.org/namespaces/inkscape"
   width="187.27888mm"
   height="56.708042mm"
   viewBox="0 0 187.27888 56.708042"
   version="1.1"
   id="svg9061"
   inkscapeVersion="0.92.4 (5da689c313, 2019-01-14)"
   sodipodiDocname="logo.svg">
  <defs
     id="defs9055" />
  <sodipodiNamedview
     id="base"
     pagecolor="#ffffff"
     bordercolor="#666666"
     borderopacity="1.0"
     inkscapePageopacity="0.0"
     inkscapePageshadow="2"
     inkscapeZoom="0.35"
     inkscapeCx="345.96187"
     inkscapeCy="76.68578"
     inkscapeDocument-units="mm"
     inkscapeCurrent-layer="layer1"
     inkscapeDocument-rotation="0"
     showgrid="false"
     inkscapeWindow-width="1920"
     inkscapeWindow-height="1051"
     inkscapeWindow-x="-9"
     inkscapeWindow-y="-9"
     inkscapeWindow-maximized="1"
     fit-margin-top="0"
     fit-margin-left="0"
     fit-margin-right="0"
     fit-margin-bottom="0" />
  <metadata
     id="metadata9058">
    <rdfRDF>
      <ccWork
         rdfAbout="">
        <dcFormat>image/svg+xml</dcFormat>
        <dcType
           rdfResource="http://purl.org/dc/dcmitype/StillImage" />
        <dcTitle></dcTitle>
      </ccWork>
    </rdfRDF>
  </metadata>
  <g
     inkscapeLabel="Vrstva 1"
     inkscapeGroupmode="layer"
     id="layer1"
     transform="translate(-14.297588,-15.304356)">
    <g
       id="g9002"
       transform="matrix(5.1770199,0,0,-5.1770199,-1420.1164,3319.4669)"
       clip-path="none">
      <g
         id="g6974"
         transform="translate(277.4653,629.1185)"
         style="image-rendering:auto">
        <path
           d="m 0,0 c -0.104,0 -0.147,-0.044 -0.147,-0.146 v -0.608 h 0.576 c 0.325,0 0.416,0.116 0.416,0.376 C 0.845,-0.112 0.754,0 0.429,0 Z M 0.632,-0.963 1.095,-1.701 C 1.147,-1.779 1.136,-1.805 1.038,-1.805 H 1.004 c -0.097,0 -0.135,0.019 -0.188,0.104 l -0.447,0.719 h -0.516 v -0.716 c 0,-0.085 -0.022,-0.107 -0.107,-0.107 h -0.031 c -0.084,0 -0.107,0.022 -0.107,0.107 v 1.589 c 0,0.234 0.101,0.338 0.338,0.338 h 0.483 c 0.484,0 0.66,-0.207 0.66,-0.607 0,-0.338 -0.122,-0.532 -0.457,-0.585"
           style="fill:#575759;fill-opacity:1;fill-rule:nonzero;stroke:none"
           id="path6976"
           inkscapeConnector-curvature="0" />
      </g>
      <g
         id="g6978"
         transform="translate(280.479,628.2308)"
         style="image-rendering:auto">
        <path
           d="M 0,0 C 0,0.3 -0.106,0.435 -0.447,0.435 -0.795,0.435 -0.901,0.3 -0.901,0 v -0.291 c 0,-0.301 0.112,-0.436 0.454,-0.436 0.341,0 0.447,0.135 0.447,0.436 z M -1.136,-0.291 V 0 c 0,0.437 0.229,0.656 0.689,0.656 0.484,0 0.681,-0.228 0.681,-0.656 v -0.291 c 0,-0.438 -0.228,-0.657 -0.681,-0.657 -0.489,0 -0.689,0.228 -0.689,0.657"
           style="fill:#575759;fill-opacity:1;fill-rule:nonzero;stroke:none"
           id="path6980"
           inkscapeConnector-curvature="0" />
      </g>
      <g
         id="g6982"
         transform="translate(281.7348,627.8676)"
         style="image-rendering:auto">
        <path
           d="m 0,0 c 0,-0.247 0.104,-0.363 0.419,-0.363 0.316,0 0.416,0.113 0.416,0.363 v 0.889 c 0,0.078 0.022,0.099 0.101,0.099 H 0.97 c 0.084,0 0.099,-0.021 0.099,-0.099 V 0 c 0,-0.379 -0.19,-0.585 -0.65,-0.585 -0.435,0 -0.653,0.194 -0.653,0.585 v 0.889 c 0,0.078 0.021,0.099 0.099,0.099 H -0.1 C -0.016,0.988 0,0.967 0,0.889 Z"
           style="fill:#575759;fill-opacity:1;fill-rule:nonzero;stroke:none"
           id="path6984"
           inkscapeConnector-curvature="0" />
      </g>
      <g
         id="g6986"
         transform="translate(283.8257,627.9398)"
         style="image-rendering:auto">
        <path
           d="m 0,0 c 0,-0.301 0.104,-0.436 0.45,-0.436 0.342,0 0.451,0.135 0.451,0.436 v 0.291 c 0,0.3 -0.109,0.435 -0.451,0.435 C 0.109,0.726 0,0.591 0,0.291 Z m 1.136,-0.004 c 0,-0.434 -0.229,-0.653 -0.686,-0.653 -0.471,0 -0.684,0.219 -0.684,0.653 v 0.291 c 0,0.442 0.215,0.66 0.647,0.66 0.241,0 0.403,-0.075 0.488,-0.228 v 0.745 c 0,0.084 0.016,0.099 0.1,0.099 h 0.034 c 0.079,0 0.101,-0.015 0.101,-0.099 z"
           style="fill:#575759;fill-opacity:1;fill-rule:nonzero;stroke:none"
           id="path6988"
           inkscapeConnector-curvature="0" />
      </g>
      <g
         id="g6990"
         transform="translate(286.0151,627.4135)"
         style="image-rendering:auto">
        <path
           d="m 0,0 c 0,-0.084 -0.016,-0.1 -0.1,-0.1 h -0.035 c -0.078,0 -0.099,0.016 -0.099,0.1 v 0.889 c 0,0.391 0.218,0.585 0.653,0.585 0.46,0 0.651,-0.206 0.651,-0.585 V 0 c 0,-0.084 -0.015,-0.1 -0.1,-0.1 H 0.933 C 0.848,-0.1 0.832,-0.084 0.832,0 v 0.889 c 0,0.25 -0.097,0.363 -0.413,0.363 C 0.104,1.252 0,1.136 0,0.889 Z"
           style="fill:#575759;fill-opacity:1;fill-rule:nonzero;stroke:none"
           id="path6992"
           inkscapeConnector-curvature="0" />
      </g>
      <g
         id="g6994"
         transform="translate(287.9634,628.7562)"
         style="image-rendering:auto">
        <path
           d="m 0,0 c 0,0.078 0.016,0.1 0.1,0.1 h 0.034 c 0.078,0 0.1,-0.022 0.1,-0.1 v -1.343 c 0,-0.084 -0.022,-0.099 -0.1,-0.099 H 0.1 c -0.084,0 -0.1,0.015 -0.1,0.099 z m 0.269,0.581 c 0,-0.084 -0.066,-0.149 -0.151,-0.149 -0.087,0 -0.156,0.065 -0.156,0.149 0,0.085 0.069,0.153 0.156,0.153 0.085,0 0.151,-0.068 0.151,-0.153"
           style="fill:#575759;fill-opacity:1;fill-rule:nonzero;stroke:none"
           id="path6996"
           inkscapeConnector-curvature="0" />
      </g>
      <g
         id="g6998"
         transform="translate(289.0415,628.2396)"
         style="image-rendering:auto">
        <path
           d="m 0,0 c 0,0.41 0.222,0.647 0.697,0.647 0.104,0 0.195,-0.012 0.276,-0.04 C 1.048,0.582 1.066,0.56 1.066,0.488 V 0.457 C 1.066,0.379 1.048,0.356 0.973,0.382 0.895,0.41 0.804,0.426 0.704,0.426 c -0.35,0 -0.47,-0.138 -0.47,-0.429 v -0.304 c 0,-0.315 0.141,-0.428 0.489,-0.428 0.106,0 0.2,0.012 0.281,0.041 0.072,0.025 0.094,0 0.094,-0.078 v -0.032 c 0,-0.065 -0.022,-0.091 -0.1,-0.112 C 0.91,-0.944 0.813,-0.957 0.707,-0.957 0.229,-0.957 0,-0.751 0,-0.31 Z"
           style="fill:#575759;fill-opacity:1;fill-rule:nonzero;stroke:none"
           id="path7000"
           inkscapeConnector-curvature="0" />
      </g>
      <g
         id="g7002"
         transform="translate(291.0073,628.1928)"
         style="image-rendering:auto">
        <path
           d="M 0,0 H 0.845 V 0.104 C 0.845,0.356 0.704,0.485 0.423,0.485 0.141,0.485 0,0.356 0,0.104 Z M 1.058,-0.1 C 1.048,-0.178 1.029,-0.197 0.945,-0.197 H 0 v -0.094 c 0,-0.284 0.141,-0.397 0.488,-0.397 0.138,0 0.279,0.019 0.425,0.059 0.075,0.023 0.101,-0.003 0.101,-0.081 V -0.738 C 1.014,-0.804 1.001,-0.826 0.917,-0.851 0.782,-0.892 0.639,-0.91 0.488,-0.91 c -0.491,0 -0.722,0.19 -0.722,0.653 v 0.291 c 0,0.442 0.218,0.66 0.66,0.66 0.413,0 0.64,-0.213 0.64,-0.625 0,-0.072 -0.003,-0.129 -0.008,-0.169"
           style="fill:#575759;fill-opacity:1;fill-rule:nonzero;stroke:none"
           id="path7004"
           inkscapeConnector-curvature="0" />
      </g>
      <g
         id="g7006"
         transform="translate(294.4204,627.4135)"
         style="image-rendering:auto">
        <path
           d="m 0,0 c 0,-0.084 -0.016,-0.1 -0.1,-0.1 h -0.035 c -0.078,0 -0.099,0.016 -0.099,0.1 v 0.889 c 0,0.391 0.218,0.585 0.653,0.585 0.46,0 0.651,-0.206 0.651,-0.585 V 0 c 0,-0.084 -0.015,-0.1 -0.1,-0.1 H 0.933 C 0.848,-0.1 0.832,-0.084 0.832,0 v 0.889 c 0,0.25 -0.097,0.363 -0.413,0.363 C 0.104,1.252 0,1.136 0,0.889 Z"
           style="fill:#575759;fill-opacity:1;fill-rule:nonzero;stroke:none"
           id="path7008"
           inkscapeConnector-curvature="0" />
      </g>
      <g
         id="g7010"
         transform="translate(297.2671,628.0238)"
         style="image-rendering:auto">
        <path
           d="m 0,0 h -0.366 c -0.279,0 -0.406,-0.075 -0.406,-0.272 0,-0.178 0.115,-0.266 0.349,-0.266 0.288,0 0.423,0.065 0.423,0.301 z m 0.234,-0.247 c 0,-0.347 -0.203,-0.494 -0.653,-0.494 -0.36,0 -0.588,0.143 -0.588,0.469 0,0.326 0.212,0.457 0.638,0.457 H 0 v 0.187 c 0,0.213 -0.144,0.285 -0.41,0.285 -0.138,0 -0.253,-0.012 -0.344,-0.034 -0.075,-0.016 -0.1,0.003 -0.1,0.078 v 0.025 c 0,0.072 0.019,0.09 0.094,0.106 0.103,0.022 0.216,0.031 0.337,0.031 0.439,0 0.657,-0.162 0.657,-0.491 z"
           style="fill:#575759;fill-opacity:1;fill-rule:nonzero;stroke:none"
           id="path7012"
           inkscapeConnector-curvature="0" />
      </g>
      <g
         id="g7014"
         transform="translate(298.5102,627.9398)"
         style="image-rendering:auto">
        <path
           d="m 0,0 c 0,-0.301 0.104,-0.436 0.45,-0.436 0.342,0 0.451,0.135 0.451,0.436 v 0.291 c 0,0.3 -0.109,0.435 -0.451,0.435 C 0.109,0.726 0,0.591 0,0.291 Z m 1.136,-0.004 c 0,-0.434 -0.229,-0.653 -0.686,-0.653 -0.471,0 -0.684,0.219 -0.684,0.653 v 0.291 c 0,0.442 0.215,0.66 0.647,0.66 0.241,0 0.403,-0.075 0.488,-0.228 v 0.745 c 0,0.084 0.016,0.099 0.1,0.099 h 0.034 c 0.078,0 0.101,-0.015 0.101,-0.099 z"
           style="fill:#575759;fill-opacity:1;fill-rule:nonzero;stroke:none"
           id="path7016"
           inkscapeConnector-curvature="0" />
      </g>
      <g
         id="g7018"
         transform="translate(301.8237,629.2406)"
         style="image-rendering:auto">
        <path
           d="M 0,0 C 0,0.085 0.022,0.106 0.106,0.106 H 0.138 C 0.223,0.106 0.244,0.085 0.244,0 v -1.552 c 0,-0.102 0.044,-0.146 0.148,-0.146 h 0.707 c 0.078,0 0.096,-0.019 0.096,-0.097 V -1.83 c 0,-0.078 -0.018,-0.097 -0.096,-0.097 H 0.338 C 0.101,-1.927 0,-1.823 0,-1.589 Z"
           style="fill:#575759;fill-opacity:1;fill-rule:nonzero;stroke:none"
           id="path7020"
           inkscapeConnector-curvature="0" />
      </g>
      <g
         id="g7022"
         transform="translate(304.6782,628.0238)"
         style="image-rendering:auto">
        <path
           d="m 0,0 h -0.366 c -0.279,0 -0.406,-0.075 -0.406,-0.272 0,-0.178 0.115,-0.266 0.35,-0.266 0.287,0 0.422,0.065 0.422,0.301 z m 0.234,-0.247 c 0,-0.347 -0.203,-0.494 -0.653,-0.494 -0.36,0 -0.588,0.143 -0.588,0.469 0,0.326 0.212,0.457 0.638,0.457 H 0 v 0.187 c 0,0.213 -0.144,0.285 -0.41,0.285 -0.138,0 -0.253,-0.012 -0.344,-0.034 -0.075,-0.016 -0.1,0.003 -0.1,0.078 v 0.025 c 0,0.072 0.019,0.09 0.094,0.106 0.103,0.022 0.216,0.031 0.338,0.031 0.438,0 0.656,-0.162 0.656,-0.491 z"
           style="fill:#575759;fill-opacity:1;fill-rule:nonzero;stroke:none"
           id="path7024"
           inkscapeConnector-curvature="0" />
      </g>
      <g
         id="g7026"
         transform="translate(306.8696,628.2308)"
         style="image-rendering:auto">
        <path
           d="M 0,0 C 0,0.303 -0.106,0.435 -0.447,0.435 -0.788,0.435 -0.898,0.3 -0.898,0 v -0.291 c 0,-0.301 0.11,-0.436 0.451,-0.436 0.346,0 0.447,0.135 0.447,0.436 z m -1.133,1.173 c 0,0.084 0.023,0.099 0.101,0.099 h 0.034 c 0.084,0 0.1,-0.015 0.1,-0.099 V 0.428 c 0.082,0.153 0.244,0.228 0.488,0.228 0.431,0 0.647,-0.219 0.647,-0.66 v -0.291 c 0,-0.434 -0.213,-0.653 -0.684,-0.653 -0.457,0 -0.686,0.219 -0.686,0.653 z"
           style="fill:#575759;fill-opacity:1;fill-rule:nonzero;stroke:none"
           id="path7028"
           inkscapeConnector-curvature="0" />
      </g>
      <g
         id="g7030"
         transform="translate(308.1157,628.1928)"
         style="image-rendering:auto">
        <path
           d="M 0,0 H 0.845 V 0.104 C 0.845,0.356 0.704,0.485 0.423,0.485 0.141,0.485 0,0.356 0,0.104 Z M 1.058,-0.1 C 1.048,-0.178 1.029,-0.197 0.945,-0.197 H 0 v -0.094 c 0,-0.284 0.141,-0.397 0.488,-0.397 0.138,0 0.279,0.019 0.426,0.059 0.074,0.023 0.1,-0.003 0.1,-0.081 V -0.738 C 1.014,-0.804 1.001,-0.826 0.917,-0.851 0.782,-0.892 0.639,-0.91 0.488,-0.91 c -0.491,0 -0.722,0.19 -0.722,0.653 v 0.291 c 0,0.442 0.218,0.66 0.66,0.66 0.413,0 0.64,-0.213 0.64,-0.625 0,-0.072 -0.003,-0.129 -0.008,-0.169"
           style="fill:#575759;fill-opacity:1;fill-rule:nonzero;stroke:none"
           id="path7032"
           inkscapeConnector-curvature="0" />
      </g>
      <g
         id="g7034"
         transform="translate(310.2231,627.4135)"
         style="image-rendering:auto">
        <path
           d="m 0,0 c 0,-0.084 -0.016,-0.1 -0.1,-0.1 h -0.035 c -0.078,0 -0.099,0.016 -0.099,0.1 v 0.889 c 0,0.391 0.2,0.585 0.597,0.585 0.247,0 0.407,-0.088 0.479,-0.26 0.078,0.172 0.237,0.26 0.481,0.26 0.416,0 0.595,-0.206 0.595,-0.585 V 0 c 0,-0.084 -0.022,-0.1 -0.101,-0.1 H 1.783 C 1.699,-0.1 1.684,-0.084 1.684,0 v 0.889 c 0,0.247 -0.085,0.363 -0.361,0.363 -0.278,0 -0.366,-0.113 -0.366,-0.363 V 0 c 0,-0.084 -0.016,-0.1 -0.1,-0.1 H 0.826 c -0.085,0 -0.1,0.016 -0.1,0.1 V 0.889 C 0.726,1.136 0.639,1.252 0.363,1.252 0.088,1.252 0,1.136 0,0.889 Z"
           style="fill:#575759;fill-opacity:1;fill-rule:nonzero;stroke:none"
           id="path7036"
           inkscapeConnector-curvature="0" />
      </g>
      <g
         id="g7038"
         transform="translate(300.5151,634.808)"
         style="image-rendering:auto">
        <path
           d="m 0,0 c -0.641,0 -1.275,-0.03 -1.603,-0.083 -0.7,-0.114 -1.157,-0.528 -1.322,-1.199 l -0.009,-0.031 c 0,0 -0.058,-0.206 -0.106,-0.504 -0.041,-0.252 -0.009,-0.453 0.097,-0.593 0.125,-0.168 0.367,-0.283 0.682,-0.324 1.071,-0.14 2.472,-0.11 3.157,-0.003 0.578,0.091 1.22,0.515 1.333,1.153 l 0.104,0.591 c 0.042,0.238 0.014,0.43 -0.086,0.568 -0.12,0.169 -0.364,0.29 -0.686,0.341 C 1.195,-0.026 0.595,0 0,0 m 1.005,-3.43 h 0.001 z m -1.617,-0.8 c -0.636,0 -1.292,0.035 -1.829,0.105 -0.696,0.09 -1.273,0.401 -1.626,0.876 -0.336,0.45 -0.46,1.022 -0.359,1.655 0.056,0.344 0.123,0.591 0.142,0.659 0.305,1.217 1.199,2.032 2.457,2.237 0.761,0.123 2.683,0.146 3.606,0 C 2.486,1.189 3.044,0.874 3.39,0.39 3.71,-0.061 3.823,-0.623 3.715,-1.237 L 3.61,-1.827 C 3.407,-2.98 2.38,-3.925 1.113,-4.123 0.655,-4.194 0.032,-4.23 -0.612,-4.23"
           style="fill:#575759;fill-opacity:1;fill-rule:nonzero;stroke:none"
           id="path7040"
           inkscapeConnector-curvature="0" />
      </g>
      <g
         id="g7042"
         transform="translate(293.6821,636.2279)"
         style="image-rendering:auto">
        <path
           d="m 0,0 c -0.38,0.007 -0.775,0.01 -1.181,0.011 l -4.224,-3.166 c 0.274,1.497 0.561,2.583 0.565,2.597 l 0.133,0.498 c -0.162,-0.006 -0.254,-0.01 -0.257,-0.01 l -1.212,-0.053 -0.019,-0.073 c -0.023,-0.086 -0.564,-2.126 -0.884,-4.562 l -0.1,-0.759 0.765,-0.033 c 0.914,-0.04 1.849,-0.054 2.714,-0.054 0.915,0 1.753,0.015 2.407,0.034 l 0.36,1.414 C -1.767,-4.184 -3.06,-4.212 -4.458,-4.197 l 4.273,3.201 C -0.124,-0.687 -0.062,-0.354 0,0"
           style="fill:#575759;fill-opacity:1;fill-rule:nonzero;stroke:none"
           id="path7044"
           inkscapeConnector-curvature="0" />
      </g>
      <g
         id="g7046"
         transform="translate(289.7378,636.7894)"
         style="image-rendering:auto">
        <path
           d="m 0,0 c 1.054,0.033 2.841,0.071 4.646,0.02 -0.31,-2 -0.734,-3.601 -0.739,-3.619 L 3.774,-4.098 c 0.163,0.007 0.254,0.012 0.254,0.012 l 1.215,0.053 0.02,0.073 c 0.022,0.085 0.563,2.126 0.883,4.562 l 0.1,0.757 -0.765,0.035 C 4.567,1.434 3.633,1.447 2.768,1.447 1.853,1.447 1.015,1.432 0.36,1.414 Z"
           style="fill:#ec7f08;fill-opacity:1;fill-rule:nonzero;stroke:none"
           id="path7048"
           inkscapeConnector-curvature="0" />
      </g>
      <g
         id="g7050"
         transform="translate(282.9477,633.8793)"
         style="image-rendering:auto">
        <path
           d="m 0,0 -0.429,0.044 c -1.268,0.129 -1.846,0.187 -3.007,0.339 -0.274,0.036 -0.309,0.179 -0.306,0.262 0.004,0.094 0.058,0.209 0.301,0.221 1.401,0.075 3.709,-0.025 4.48,-0.071 l 0.331,1.39 c -0.615,0.042 -3.296,0.168 -4.887,0.083 -1.03,-0.056 -1.598,-0.831 -1.627,-1.57 -0.028,-0.744 0.487,-1.57 1.527,-1.706 1.179,-0.154 1.764,-0.214 3.046,-0.344 l 0.429,-0.044 c 0.188,-0.019 0.288,-0.099 0.286,-0.227 -0.005,-0.169 -0.192,-0.203 -0.302,-0.208 -1.778,-0.084 -4.28,-0.003 -5.454,0.06 l -0.19,-1.394 c 0.856,-0.049 2.388,-0.105 3.864,-0.105 0.646,0 1.283,0.011 1.845,0.038 1.049,0.049 1.618,0.828 1.639,1.571 C 1.565,-0.916 1.042,-0.106 0,0"
           style="fill:#575759;fill-opacity:1;fill-rule:nonzero;stroke:none"
           id="path7052"
           inkscapeConnector-curvature="0" />
      </g>
      <g
         id="g7054"
         transform="translate(311.5434,632.0639)"
         style="image-rendering:auto">
        <path
           d="m 0,0 c -1.294,-0.169 -3.337,-0.1 -4.444,-0.043 l 0.119,0.676 h 4.133 C 0.025,0.633 0.281,0.602 0.302,0.362 0.313,0.234 0.236,0.03 0,0 M -3.962,2.694 C -3.064,2.738 -1.311,2.797 -0.101,2.682 0.268,2.646 0.341,2.035 -0.192,2.035 H -4.078 Z M 1.701,0.454 C 1.672,0.907 1.457,1.183 1.044,1.334 1.33,1.539 1.542,1.812 1.602,2.149 L 1.629,2.304 C 1.66,2.481 1.755,3.022 1.413,3.482 1.172,3.808 0.79,3.996 0.247,4.06 -1.517,4.267 -4.478,4.071 -4.603,4.063 L -5.071,4.026 c 0,0 -0.689,-2.479 -1.003,-5.379 0.276,-0.015 0.751,-0.043 0.751,-0.043 0.094,-0.006 1.582,-0.114 3.154,-0.114 0.823,0 1.67,0.03 2.35,0.118 0.927,0.121 1.581,0.914 1.52,1.846"
           style="fill:#575759;fill-opacity:1;fill-rule:nonzero;stroke:none"
           id="path7056"
           inkscapeConnector-curvature="0" />
      </g>
    </g>
  </g>
</svg>
